PathFileType	4	(X/Y/Z)	C:/Users/opensim2020/Desktop/walking_exp_matlab/subject03_walking06_straight_02.trc																																																																																																																																		
DataRate	CameraRate	NumFrames	NumMarkers	Units	OrigDataRate	OrigDataStartFrame	OrigNumFrames																																																																																																																														
100	100	6	44	mm	100	1281	238																																																																																																																														
Frame#	Time	LFHD			RFHD			LBHD			RBHD			C7			T10			CLAV			STRN			RBAK			LSHO			LUPA			LELB			LFRM			LWRA			LWRB			LFIN			RSHO			RUPA			RELB			RFRM			RWRA			RWRB			RFIN			LASI			RASI			LPSI			RPSI			LTHI			LKNE			LTIB			LANK			LHEE			LTOE			RTHI			RKNE			RTIB			RANK			RHEE			RTOE			*39			*40			*41			*42			*43		
		X1	Y1	Z1	X2	Y2	Z2	X3	Y3	Z3	X4	Y4	Z4	X5	Y5	Z5	X6	Y6	Z6	X7	Y7	Z7	X8	Y8	Z8	X9	Y9	Z9	X10	Y10	Z10	X11	Y11	Z11	X12	Y12	Z12	X13	Y13	Z13	X14	Y14	Z14	X15	Y15	Z15	X16	Y16	Z16	X17	Y17	Z17	X18	Y18	Z18	X19	Y19	Z19	X20	Y20	Z20	X21	Y21	Z21	X22	Y22	Z22	X23	Y23	Z23	X24	Y24	Z24	X25	Y25	Z25	X26	Y26	Z26	X27	Y27	Z27	X28	Y28	Z28	X29	Y29	Z29	X30	Y30	Z30	X31	Y31	Z31	X32	Y32	Z32	X33	Y33	Z33	X34	Y34	Z34	X35	Y35	Z35	X36	Y36	Z36	X37	Y37	Z37	X38	Y38	Z38	X39	Y39	Z39	X40	Y40	Z40	X41	Y41	Z41	X42	Y42	Z42	X43	Y43	Z43	X44	Y44	Z44
																																																																																																																																					
1	0	-1077.00317	1612.90295	903.87756	-1091.68091	1622.01135	1035.85229	-1207.71277	1577.88208	894.80243	-1217.43164	1586.28406	1025.05627	-1250.11951	1419.74133	948.72107	-1300.52527	1109.42493	959.98773	-1132.6676	1338.17944	967.51575	-1096.74146	1170.9939	969.04364	-1323.92554	1248.84863	1038.82739	-1154.23181	1374.71045	807.73065	-1132.35706	1181.4231	735.81982	-1103.10046	1061.34167	727.63922	-1051.04968	942.92188	739.74847	-1012.83887	833.24567	779.23877	-1024.69446	833.15906	724.03931	-989.02936	758.78223	739.57318	-1200.29248	1366.25916	1118.88354	-1229.51392	1147.5603	1196.40112	-1225.62	1035.50586	1214.65112	-1216.28003	899.20917	1222.02136	-1185.35815	802.41364	1193.41858	-1223.297	799.38098	1232.49951	-1201.3783	727.88385	1226.83704	-1139.19238	939.4126	854.51233	-1142.84302	941.35522	1092.98132	-1300.896	968.83527	904.06531	-1302.08728	970.23267	1051.79211	-1222.66101	640.5575	829.91296	-1241.90637	465.50928	875.27338	-1314.28247	282.52026	882.46735	-1348.43848	73.68861	931.49414	-1390.40381	44.30332	968.84167	-1198.92883	28.86217	969.14014	-1122.82336	654.49554	1146.64673	-1042.13782	493.35333	1119.60364	-1102.74927	310.70865	1129.78955	-1163.93286	102.27604	1093.49512	-1213.08533	74.36622	1041.58337	-1037.10229	44.06625	1083.08875	-1159.22754	1683.01819	942.87878	NaN	NaN	NaN	NaN	NaN	NaN	NaN	NaN	NaN	NaN	NaN	NaN
2	0.01	-1067.89587	1612.26526	904.52246	-1082.86719	1620.98291	1036.60059	-1198.63196	1577.2522	895.17676	-1208.57361	1585.31775	1025.50354	-1241.17261	1418.9707	949.02234	-1291.9375	1108.74231	961.53473	-1123.76404	1337.36182	967.75708	-1087.96875	1170.09949	969.16699	-1314.91772	1248.19189	1039.46533	-1145.75696	1373.72986	808.01807	-1122.32959	1181.17358	735.6969	-1091.21179	1061.51538	727.40045	-1036.34204	944.51093	739.78717	-994.69476	836.42542	779.97906	-1007.41595	835.18842	725.06781	-969.76031	761.84216	741.18652	-1191.16846	1365.75464	1119.23279	-1221.5188	1147.31299	1197.0625	-1218.17981	1035.25073	1215.35095	-1209.54077	898.953	1222.7887	-1179.0719	802.02417	1194.11719	-1216.91675	799.09204	1233.27429	-1195.59473	727.4505	1227.3938	-1131.51709	938.86963	854.78192	-1132.9718	940.59058	1093.50122	-1292.77234	968.21649	905.65076	-1292.87927	969.25574	1053.31763	-1216.40112	640.46375	830.67828	-1237.72522	465.51959	875.276	-1312.26819	283.22513	882.45593	-1348.10925	74.40172	931.3894	-1390.19055	45.41781	968.80945	-1198.70947	28.60552	969.05127	-1112.81909	653.64441	1147.00464	-1031.84753	492.80588	1119.51025	-1083.83447	307.47305	1129.35681	-1132.83679	96.23191	1092.52551	-1180.04675	65.81909	1040.12476	-1002.81226	44.05175	1081.58411	-1150.13452	1682.05029	943.24585	NaN	NaN	NaN	NaN	NaN	NaN	NaN	NaN	NaN	NaN	NaN	NaN
3	0.02	-1058.84045	1611.49646	905.21771	-1074.02222	1619.92029	1037.27344	-1189.53699	1576.47485	895.58521	-1199.78833	1584.24878	1025.96277	-1232.06909	1418.02014	949.38214	-1283.26953	1107.9613	963.16498	-1114.71887	1336.39563	968.02588	-1079.12439	1168.84399	969.34265	-1305.71875	1247.42993	1040.26514	-1137.23547	1372.58728	808.31268	-1112.42029	1180.66736	735.56891	-1079.53345	1061.57544	727.2876	-1021.90637	946.10846	739.90228	-976.84192	839.61761	780.78192	-990.40167	837.24469	726.13885	-950.72296	764.95227	742.88361	-1181.88354	1365.12939	1119.62939	-1213.40039	1146.97449	1197.6991	-1210.63879	1034.93103	1216.08984	-1202.61206	898.59161	1223.56006	-1172.63452	801.40265	1194.77271	-1210.46948	798.75543	1234.0719	-1189.5708	726.77612	1227.91235	-1123.38074	938.32562	855.1496	-1123.45776	939.52094	1093.74548	-1284.53479	967.4649	907.23004	-1283.58655	968.164	1054.92932	-1210.42627	640.37616	831.05084	-1233.31982	465.55679	875.17798	-1310.0708	283.91098	882.40485	-1347.85083	75.12344	931.2287	-1389.73987	46.25265	968.80798	-1198.53625	28.33091	968.98767	-1103.4751	652.47473	1147.3407	-1022.19568	491.86313	1119.47034	-1065.33057	304.38629	1128.76367	-1101.1792	90.10178	1090.60632	-1146.79602	58.16763	1038.0719	-968.89685	44.54914	1080.03271	-1141.17859	1681.42554	944.25934	NaN	NaN	NaN	NaN	NaN	NaN	NaN	NaN	NaN	NaN	NaN	NaN
4	0.03	-1049.73523	1610.58154	905.86798	-1065.07764	1618.77405	1037.92224	-1180.38416	1575.45032	895.97412	-1190.74756	1582.94995	1026.2356	-1222.97681	1417.0144	949.86816	-1274.52771	1107.06702	964.86957	-1105.56519	1335.27905	968.26318	-1070.24316	1167.84351	969.54095	-1296.35669	1246.59253	1041.25891	-1128.67517	1371.2959	808.64099	-1102.46887	1180.09656	735.91907	-1067.88843	1061.43408	727.18939	-1007.63977	947.52228	740.22284	-959.44617	842.79504	781.7099	-973.54169	839.23676	727.32794	-932.03094	768.09418	744.62189	-1172.39148	1364.42163	1120.04309	-1205.16284	1146.58789	1198.37988	-1202.94067	1034.47754	1216.82922	-1195.53369	898.0835	1224.34705	-1166.00623	800.80383	1195.64148	-1203.87927	798.33551	1234.84424	-1183.4895	726.1842	1228.57837	-1115.40234	937.53827	855.48547	-1113.79626	938.21509	1094.00208	-1276.13989	966.53558	908.72607	-1274.18201	966.9201	1056.46448	-1203.94885	640.11261	831.85016	-1228.70605	465.36673	875.03284	-1307.71533	284.50589	882.31439	-1347.52844	75.99198	931.26727	-1389.3949	47.19322	968.70093	-1198.42786	28.20719	968.83008	-1094.80261	650.89105	1147.63928	-1013.1402	490.44202	1119.34595	-1047.25366	301.45596	1127.94861	-1070.10828	85.50544	1088.8396	-1113.6001	51.82692	1035.80261	-935.5564	45.52023	1078.57642	-1132.27905	1680.42139	945.13055	NaN	NaN	NaN	NaN	NaN	NaN	NaN	NaN	NaN	NaN	NaN	NaN
5	0.04	-1040.56421	1609.57581	906.5506	-1056.1178	1617.57727	1038.53711	-1171.17761	1574.32507	896.3855	-1181.72009	1581.60986	1026.63818	-1213.75037	1415.8573	950.40259	-1265.69067	1106.05017	966.60364	-1096.32312	1334.04333	968.54565	-1061.23145	1166.59119	969.64893	-1286.90637	1245.69922	1042.42065	-1120.10291	1369.88916	809.03339	-1092.56287	1179.30762	735.98022	-1056.41553	1061.0874	727.26526	-993.57605	948.84167	740.56702	-942.40234	845.86786	782.66858	-957.05579	841.21472	728.6731	-913.58453	771.28387	746.46295	-1162.71008	1363.5719	1120.48645	-1196.75964	1146.06799	1199.13855	-1195.12878	1033.92346	1217.64673	-1188.35046	897.51239	1225.19666	-1159.09241	800.03522	1196.55042	-1197.10266	797.76141	1235.69128	-1177.18188	725.30261	1229.36292	-1107.1969	936.737	855.87769	-1104.08118	936.76697	1094.30017	-1267.5929	965.49225	910.25153	-1264.57214	965.49353	1057.98218	-1197.99243	639.89215	831.4679	-1223.91919	465.19397	874.86713	-1305.12744	285.01813	882.20374	-1346.40332	76.39846	931.47327	-1389.25085	48.49392	968.65582	-1198.26343	28.11265	968.65393	-1086.64709	648.85345	1147.85925	-1004.58447	488.61017	1119.02161	-1029.67615	298.76169	1126.94189	-1039.69202	82.02163	1087.22156	-1080.89392	46.8341	1033.43054	-902.98065	47.09249	1077.31091	-1123.2113	1679.00818	945.51385	NaN	NaN	NaN	NaN	NaN	NaN	NaN	NaN	NaN	NaN	NaN	NaN
6	0.05	-1031.33618	1608.44556	907.14105	-1047.07458	1616.28711	1039.15002	-1161.82019	1572.98914	896.79218	-1172.6001	1580.14624	1027.06787	-1204.50781	1414.56799	950.96857	-1256.76208	1104.91467	968.39551	-1086.94116	1332.76648	968.85278	-1052.18555	1165.13013	969.8382	-1277.29724	1244.65405	1043.74072	-1111.51514	1368.35791	809.44305	-1082.88318	1178.31213	736.34912	-1045.23743	1060.76611	727.32349	-979.78357	950.05359	741.06781	-925.0274	849.1441	783.8985	-940.82806	843.14868	730.06793	-895.52478	774.48553	748.39252	-1152.80017	1362.59326	1120.97412	-1188.11096	1145.42834	1199.90259	-1187.12781	1033.27783	1218.51489	-1180.93213	896.82715	1226.10791	-1151.94971	799.18134	1197.55762	-1190.13928	797.01355	1236.4895	-1170.65698	724.44879	1230.21448	-1098.98889	935.76416	856.28888	-1094.21667	935.08978	1094.58545	-1258.99548	964.32391	911.80945	-1254.95532	964.01959	1059.56982	-1191.76367	639.65466	831.56628	-1218.94299	464.89529	874.61798	-1302.35181	285.53152	882.10052	-1346.27563	77.35581	930.97113	-1389.08154	49.94943	968.76141	-1198.10742	28.01023	968.53027	-1078.92297	646.46088	1148.07703	-996.29767	486.44464	1118.44043	-1012.64526	296.37677	1125.82251	-1009.88837	79.34281	1085.651	-1048.92053	43.06526	1031.20996	-871.40985	49.16117	1076.30981	-1113.96851	1677.71741	945.76355	NaN	NaN	NaN	NaN	NaN	NaN	NaN	NaN	NaN	NaN	NaN	NaN
